<svg xmlns="http://www.w3.org/2000/svg" width="396" height="349" fill="none" viewBox="0 0 396 349">
  <g clip-path="url(#a)">
    <g filter="url(#b)">
      <path fill="url(#c)" d="M318.747 95.008a80.778 80.778 0 0 0 1.22-14.02C319.967 36.26 283.369 0 238.223 0c-33.562 0-62.4 20.04-74.989 48.7-10.199-8.723-23.433-13.99-37.895-13.99-32.247 0-58.389 26.187-58.389 58.491 0 1.8.081 3.58.24 5.337C51.68 106.065 41 121.858 41 140.124c0 25.559 20.913 46.279 46.71 46.279h220.58c25.798 0 46.711-20.72 46.711-46.279 0-21.998-15.49-40.41-36.253-45.116Z"/>
    </g>
    <g filter="url(#d)">
      <path fill="#00BCFF" d="M125.5 136c-18.488 24.333-44.372 73 0 73s18.488-48.667 0-73Z"/>
    </g>
    <g filter="url(#e)">
      <path fill="#00BCFF" d="M269.5 136c-18.488 24.333-44.372 73 0 73s18.488-48.667 0-73Z"/>
    </g>
    <g filter="url(#f)">
      <path fill="#00BCFF" d="M200.5 237c-18.488 24.333-44.372 73 0 73s18.488-48.667 0-73Z"/>
    </g>
    <g filter="url(#g)">
      <path fill="#00BCFF" d="M300.5 192h-205c-9.665 0-17.5 7.835-17.5 17.5S85.835 227 95.5 227h205c9.665 0 17.5-7.835 17.5-17.5s-7.835-17.5-17.5-17.5Z"/>
    </g>
  </g>
  <defs>
    <filter id="b" width="314" height="196.403" x="41" y="0" color-interpolation-filters="sRGB" filterUnits="userSpaceOnUse">
      <feFlood flood-opacity="0" result="BackgroundImageFix"/>
      <feBlend in="SourceGraphic" in2="BackgroundImageFix" result="shape"/>
      <feColorMatrix in="SourceAlpha" result="hardAlpha" values="0 0 0 0 0 0 0 0 0 0 0 0 0 0 0 0 0 0 127 0"/>
      <feOffset dy="11"/>
      <feGaussianBlur stdDeviation="5"/>
      <feComposite in2="hardAlpha" k2="-1" k3="1" operator="arithmetic"/>
      <feColorMatrix values="0 0 0 0 1 0 0 0 0 1 0 0 0 0 1 0 0 0 1 0"/>
      <feBlend in2="shape" result="effect1_innerShadow_67_37"/>
    </filter>
    <filter id="d" width="87" height="112" x="82" y="136" color-interpolation-filters="sRGB" filterUnits="userSpaceOnUse">
      <feFlood flood-opacity="0" result="BackgroundImageFix"/>
      <feColorMatrix in="SourceAlpha" result="hardAlpha" values="0 0 0 0 0 0 0 0 0 0 0 0 0 0 0 0 0 0 127 0"/>
      <feOffset dy="20"/>
      <feGaussianBlur stdDeviation="9.5"/>
      <feComposite in2="hardAlpha" operator="out"/>
      <feColorMatrix values="0 0 0 0 0.283785 0 0 0 0 0.178889 0 0 0 0 0.933333 0 0 0 1 0"/>
      <feBlend in2="BackgroundImageFix" result="effect1_dropShadow_67_37"/>
      <feBlend in="SourceGraphic" in2="effect1_dropShadow_67_37" result="shape"/>
      <feColorMatrix in="SourceAlpha" result="hardAlpha" values="0 0 0 0 0 0 0 0 0 0 0 0 0 0 0 0 0 0 127 0"/>
      <feOffset dy="9"/>
      <feGaussianBlur stdDeviation="1.5"/>
      <feComposite in2="hardAlpha" k2="-1" k3="1" operator="arithmetic"/>
      <feColorMatrix values="0 0 0 0 1 0 0 0 0 1 0 0 0 0 1 0 0 0 0.21 0"/>
      <feBlend in2="shape" result="effect2_innerShadow_67_37"/>
    </filter>
    <filter id="e" width="87" height="112" x="226" y="136" color-interpolation-filters="sRGB" filterUnits="userSpaceOnUse">
      <feFlood flood-opacity="0" result="BackgroundImageFix"/>
      <feColorMatrix in="SourceAlpha" result="hardAlpha" values="0 0 0 0 0 0 0 0 0 0 0 0 0 0 0 0 0 0 127 0"/>
      <feOffset dy="20"/>
      <feGaussianBlur stdDeviation="9.5"/>
      <feComposite in2="hardAlpha" operator="out"/>
      <feColorMatrix values="0 0 0 0 0.283785 0 0 0 0 0.178889 0 0 0 0 0.933333 0 0 0 1 0"/>
      <feBlend in2="BackgroundImageFix" result="effect1_dropShadow_67_37"/>
      <feBlend in="SourceGraphic" in2="effect1_dropShadow_67_37" result="shape"/>
      <feColorMatrix in="SourceAlpha" result="hardAlpha" values="0 0 0 0 0 0 0 0 0 0 0 0 0 0 0 0 0 0 127 0"/>
      <feOffset dy="9"/>
      <feGaussianBlur stdDeviation="1.5"/>
      <feComposite in2="hardAlpha" k2="-1" k3="1" operator="arithmetic"/>
      <feColorMatrix values="0 0 0 0 1 0 0 0 0 1 0 0 0 0 1 0 0 0 0.21 0"/>
      <feBlend in2="shape" result="effect2_innerShadow_67_37"/>
    </filter>
    <filter id="f" width="87" height="112" x="157" y="237" color-interpolation-filters="sRGB" filterUnits="userSpaceOnUse">
      <feFlood flood-opacity="0" result="BackgroundImageFix"/>
      <feColorMatrix in="SourceAlpha" result="hardAlpha" values="0 0 0 0 0 0 0 0 0 0 0 0 0 0 0 0 0 0 127 0"/>
      <feOffset dy="20"/>
      <feGaussianBlur stdDeviation="9.5"/>
      <feComposite in2="hardAlpha" operator="out"/>
      <feColorMatrix values="0 0 0 0 0.283785 0 0 0 0 0.178889 0 0 0 0 0.933333 0 0 0 1 0"/>
      <feBlend in2="BackgroundImageFix" result="effect1_dropShadow_67_37"/>
      <feBlend in="SourceGraphic" in2="effect1_dropShadow_67_37" result="shape"/>
      <feColorMatrix in="SourceAlpha" result="hardAlpha" values="0 0 0 0 0 0 0 0 0 0 0 0 0 0 0 0 0 0 127 0"/>
      <feOffset dy="9"/>
      <feGaussianBlur stdDeviation="1.5"/>
      <feComposite in2="hardAlpha" k2="-1" k3="1" operator="arithmetic"/>
      <feColorMatrix values="0 0 0 0 1 0 0 0 0 1 0 0 0 0 1 0 0 0 0.21 0"/>
      <feBlend in2="shape" result="effect2_innerShadow_67_37"/>
    </filter>
    <filter id="g" width="396" height="191" x="0" y="114" color-interpolation-filters="sRGB" filterUnits="userSpaceOnUse">
      <feFlood flood-opacity="0" result="BackgroundImageFix"/>
      <feBlend in="SourceGraphic" in2="BackgroundImageFix" result="shape"/>
      <feGaussianBlur result="effect1_foregroundBlur_67_37" stdDeviation="39"/>
    </filter>
    <linearGradient id="c" x1="60.972" x2="377.746" y1="169.76" y2="-67.127" gradientUnits="userSpaceOnUse">
      <stop stop-color="#fff"/>
      <stop offset="1" stop-color="#fff" stop-opacity=".58"/>
    </linearGradient>
    <clipPath id="a">
      <path fill="#fff" d="M0 0h396v349H0z"/>
    </clipPath>
  </defs>
</svg>
