<svg xmlns="http://www.w3.org/2000/svg" width="396" height="378" fill="none" viewBox="0 0 396 378">
  <g clip-path="url(#a)">
    <g filter="url(#b)">
      <path fill="url(#c)" d="M362 114c0 60.751-49.249 110-110 110s-110-49.249-110-110S191.249 4 252 4s110 49.249 110 110Z"/>
    </g>
    <g filter="url(#d)">
      <path fill="url(#e)" d="M301.326 155.629a72.8 72.8 0 0 0 1.1-12.636c0-40.313-32.985-72.993-73.674-72.993-30.249 0-56.24 18.061-67.586 43.893-9.192-7.863-21.119-12.61-34.154-12.61-29.063 0-52.624 23.602-52.624 52.717 0 1.621.073 3.225.216 4.809C60.627 165.593 51 179.828 51 196.29 51 219.326 69.848 238 93.1 238h198.8c23.252 0 42.1-18.674 42.1-41.71 0-19.826-13.961-36.421-32.674-40.661Z"/>
    </g>
    <g filter="url(#f)">
      <path fill="#00BCFF" d="M125.5 266c-12.451 16.333-29.883 49 0 49s12.451-32.667 0-49Z"/>
    </g>
    <g filter="url(#g)">
      <path fill="#00BCFF" d="M195.5 290c-12.451 16.333-29.883 49 0 49s12.451-32.667 0-49Z"/>
    </g>
    <g filter="url(#h)">
      <path fill="#00BCFF" d="M260.5 266c-12.451 16.333-29.883 49 0 49s12.451-32.667 0-49Z"/>
    </g>
    <g filter="url(#i)">
      <path fill="#00BCFF" d="M300.5 233h-205c-9.665 0-17.5 7.835-17.5 17.5S85.835 268 95.5 268h205c9.665 0 17.5-7.835 17.5-17.5s-7.835-17.5-17.5-17.5Z"/>
    </g>
  </g>
  <defs>
    <filter id="b" width="286" height="286" x="109" y="0" color-interpolation-filters="sRGB" filterUnits="userSpaceOnUse">
      <feFlood flood-opacity="0" result="BackgroundImageFix"/>
      <feColorMatrix in="SourceAlpha" result="hardAlpha" values="0 0 0 0 0 0 0 0 0 0 0 0 0 0 0 0 0 0 127 0"/>
      <feOffset dy="29"/>
      <feGaussianBlur stdDeviation="16.5"/>
      <feComposite in2="hardAlpha" operator="out"/>
      <feColorMatrix values="0 0 0 0 0.283997 0 0 0 0 0.1825 0 0 0 0 0.9125 0 0 0 0.68 0"/>
      <feBlend in2="BackgroundImageFix" result="effect1_dropShadow_67_49"/>
      <feBlend in="SourceGraphic" in2="effect1_dropShadow_67_49" result="shape"/>
      <feColorMatrix in="SourceAlpha" result="hardAlpha" values="0 0 0 0 0 0 0 0 0 0 0 0 0 0 0 0 0 0 127 0"/>
      <feOffset dy="5"/>
      <feGaussianBlur stdDeviation="9"/>
      <feComposite in2="hardAlpha" k2="-1" k3="1" operator="arithmetic"/>
      <feColorMatrix values="0 0 0 0 1 0 0 0 0 1 0 0 0 0 1 0 0 0 0.81 0"/>
      <feBlend in2="shape" result="effect2_innerShadow_67_49"/>
    </filter>
    <filter id="d" width="283" height="178" x="51" y="70" color-interpolation-filters="sRGB" filterUnits="userSpaceOnUse">
      <feFlood flood-opacity="0" result="BackgroundImageFix"/>
      <feBlend in="SourceGraphic" in2="BackgroundImageFix" result="shape"/>
      <feColorMatrix in="SourceAlpha" result="hardAlpha" values="0 0 0 0 0 0 0 0 0 0 0 0 0 0 0 0 0 0 127 0"/>
      <feOffset dy="11"/>
      <feGaussianBlur stdDeviation="5"/>
      <feComposite in2="hardAlpha" k2="-1" k3="1" operator="arithmetic"/>
      <feColorMatrix values="0 0 0 0 1 0 0 0 0 1 0 0 0 0 1 0 0 0 1 0"/>
      <feBlend in2="shape" result="effect1_innerShadow_67_49"/>
    </filter>
    <filter id="f" width="71" height="88" x="90" y="266" color-interpolation-filters="sRGB" filterUnits="userSpaceOnUse">
      <feFlood flood-opacity="0" result="BackgroundImageFix"/>
      <feColorMatrix in="SourceAlpha" result="hardAlpha" values="0 0 0 0 0 0 0 0 0 0 0 0 0 0 0 0 0 0 127 0"/>
      <feOffset dy="20"/>
      <feGaussianBlur stdDeviation="9.5"/>
      <feComposite in2="hardAlpha" operator="out"/>
      <feColorMatrix values="0 0 0 0 0.283785 0 0 0 0 0.178889 0 0 0 0 0.933333 0 0 0 1 0"/>
      <feBlend in2="BackgroundImageFix" result="effect1_dropShadow_67_49"/>
      <feBlend in="SourceGraphic" in2="effect1_dropShadow_67_49" result="shape"/>
      <feColorMatrix in="SourceAlpha" result="hardAlpha" values="0 0 0 0 0 0 0 0 0 0 0 0 0 0 0 0 0 0 127 0"/>
      <feOffset dy="9"/>
      <feGaussianBlur stdDeviation="1.5"/>
      <feComposite in2="hardAlpha" k2="-1" k3="1" operator="arithmetic"/>
      <feColorMatrix values="0 0 0 0 1 0 0 0 0 1 0 0 0 0 1 0 0 0 0.21 0"/>
      <feBlend in2="shape" result="effect2_innerShadow_67_49"/>
    </filter>
    <filter id="g" width="71" height="88" x="160" y="290" color-interpolation-filters="sRGB" filterUnits="userSpaceOnUse">
      <feFlood flood-opacity="0" result="BackgroundImageFix"/>
      <feColorMatrix in="SourceAlpha" result="hardAlpha" values="0 0 0 0 0 0 0 0 0 0 0 0 0 0 0 0 0 0 127 0"/>
      <feOffset dy="20"/>
      <feGaussianBlur stdDeviation="9.5"/>
      <feComposite in2="hardAlpha" operator="out"/>
      <feColorMatrix values="0 0 0 0 0.283785 0 0 0 0 0.178889 0 0 0 0 0.933333 0 0 0 1 0"/>
      <feBlend in2="BackgroundImageFix" result="effect1_dropShadow_67_49"/>
      <feBlend in="SourceGraphic" in2="effect1_dropShadow_67_49" result="shape"/>
      <feColorMatrix in="SourceAlpha" result="hardAlpha" values="0 0 0 0 0 0 0 0 0 0 0 0 0 0 0 0 0 0 127 0"/>
      <feOffset dy="9"/>
      <feGaussianBlur stdDeviation="1.5"/>
      <feComposite in2="hardAlpha" k2="-1" k3="1" operator="arithmetic"/>
      <feColorMatrix values="0 0 0 0 1 0 0 0 0 1 0 0 0 0 1 0 0 0 0.21 0"/>
      <feBlend in2="shape" result="effect2_innerShadow_67_49"/>
    </filter>
    <filter id="h" width="71" height="88" x="225" y="266" color-interpolation-filters="sRGB" filterUnits="userSpaceOnUse">
      <feFlood flood-opacity="0" result="BackgroundImageFix"/>
      <feColorMatrix in="SourceAlpha" result="hardAlpha" values="0 0 0 0 0 0 0 0 0 0 0 0 0 0 0 0 0 0 127 0"/>
      <feOffset dy="20"/>
      <feGaussianBlur stdDeviation="9.5"/>
      <feComposite in2="hardAlpha" operator="out"/>
      <feColorMatrix values="0 0 0 0 0.283785 0 0 0 0 0.178889 0 0 0 0 0.933333 0 0 0 1 0"/>
      <feBlend in2="BackgroundImageFix" result="effect1_dropShadow_67_49"/>
      <feBlend in="SourceGraphic" in2="effect1_dropShadow_67_49" result="shape"/>
      <feColorMatrix in="SourceAlpha" result="hardAlpha" values="0 0 0 0 0 0 0 0 0 0 0 0 0 0 0 0 0 0 127 0"/>
      <feOffset dy="9"/>
      <feGaussianBlur stdDeviation="1.5"/>
      <feComposite in2="hardAlpha" k2="-1" k3="1" operator="arithmetic"/>
      <feColorMatrix values="0 0 0 0 1 0 0 0 0 1 0 0 0 0 1 0 0 0 0.21 0"/>
      <feBlend in2="shape" result="effect2_innerShadow_67_49"/>
    </filter>
    <filter id="i" width="396" height="191" x="0" y="155" color-interpolation-filters="sRGB" filterUnits="userSpaceOnUse">
      <feFlood flood-opacity="0" result="BackgroundImageFix"/>
      <feBlend in="SourceGraphic" in2="BackgroundImageFix" result="shape"/>
      <feGaussianBlur result="effect1_foregroundBlur_67_49" stdDeviation="39"/>
    </filter>
    <linearGradient id="c" x1="235.291" x2="325.797" y1="173.873" y2="15.139" gradientUnits="userSpaceOnUse">
      <stop stop-color="#F90"/>
      <stop offset="1" stop-color="#FFEE94"/>
    </linearGradient>
    <linearGradient id="e" x1="69" x2="354.5" y1="223" y2="9.5" gradientUnits="userSpaceOnUse">
      <stop stop-color="#fff"/>
      <stop offset="1" stop-color="#fff" stop-opacity=".58"/>
    </linearGradient>
    <clipPath id="a">
      <path fill="#fff" d="M0 0h396v378H0z"/>
    </clipPath>
  </defs>
</svg>
